<?xml version="1.0" encoding="utf-8"?>
<!-- Generator: Adobe Illustrator 16.0.0, SVG Export Plug-In . SVG Version: 6.00 Build 0)  -->
<!DOCTYPE svg PUBLIC "-//W3C//DTD SVG 1.1//EN" "http://www.w3.org/Graphics/SVG/1.1/DTD/svg11.dtd">
<svg version="1.1" id="Livello_1" xmlns="http://www.w3.org/2000/svg" xmlns:xlink="http://www.w3.org/1999/xlink" x="0px" y="0px"
	 width="416px" height="448px" viewBox="0 0 416 448" enable-background="new 0 0 416 448" xml:space="preserve">
<g id="icomoon-ignore">
</g>
<path fill="#1ABAEB" d="M416,161.75c0,3.667-2.167,7.667-6.5,12l-90.75,88.5l21.5,125c0.167,1.167,0.25,2.834,0.25,5
	c0,3.5-0.875,6.459-2.625,8.875c-1.75,2.417-4.292,3.625-7.625,3.625c-3.167,0-6.5-1-10-3l-112.25-59l-112.25,59c-3.667,2-7,3-10,3
	c-3.5,0-6.125-1.208-7.875-3.625c-1.75-2.416-2.625-5.375-2.625-8.875c0-1,0.167-2.666,0.5-5l21.5-125l-91-88.5
	c-4.167-4.5-6.25-8.5-6.25-12c0-6.166,4.667-10,14-11.5L139.5,132l56.25-113.75C198.917,11.417,203,8,208,8s9.084,3.417,12.25,10.25
	L276.5,132L402,150.25C411.333,151.75,416,155.584,416,161.75z"/>
</svg>
